<svg xmlns="http://www.w3.org/2000/svg" version="1.1" xmlns:xlink="http://www.w3.org/1999/xlink" xmlns:svgjs="http://svgjs.dev/svgjs" viewBox="0 0 1422 800"><defs><filter id="uuunion-blur" x="-100%" y="-100%" width="400%" height="400%" color-interpolation-filters="sRGB">
        <feGaussianBlur in="SourceGraphic" stdDeviation="15.5 17" result="blur"></feGaussianBlur>
        <feDropShadow stdDeviation="12.307692307692308" in="blur" dx="10" dy="10" flood-color="hsla(0, 0%, 0%, 0.5)" flood-opacity="0.25" x="0%" y="0%" width="100%" height="100%"></feDropShadow>
      </filter><filter id="uuunion-blur2" x="-100%" y="-100%" width="400%" height="400%" color-interpolation-filters="sRGB">
        <feGaussianBlur in="SourceGraphic" stdDeviation="15.5 17" result="blur"></feGaussianBlur>
        <feDropShadow stdDeviation="12.307692307692308" in="blur" dx="-10" dy="-10" flood-color="hsla(0, 0%, 0%, 0.5)" flood-opacity="0.25" x="0%" y="0%" width="100%" height="100%"></feDropShadow>
      </filter><linearGradient gradientTransform="rotate(0, 0.5, 0.5)" x1="50%" y1="0%" x2="50%" y2="100%" id="uuunion-grad"><stop stop-color="hsla(8, 100%, 71%, 0.8)" offset="10%"></stop><stop stop-color="hsla(0, 0%, 0%, 0.5)" offset="90%"></stop></linearGradient><linearGradient gradientTransform="rotate(135, 0.5, 0.5)" x1="50%" y1="0%" x2="50%" y2="100%" id="uuunion-grad2"><stop stop-color="hsla(8, 100%, 71%, 0.8)" offset="25%"></stop><stop stop-color="hsla(0, 0%, 0%, 0.5)" offset="100%"></stop></linearGradient><linearGradient gradientTransform="rotate(333, 0.5, 0.5)" x1="50%" y1="0%" x2="50%" y2="100%" id="uuunion-grad3"><stop stop-color="hsla(8, 100%, 71%, 0.8)" offset="0%"></stop><stop stop-color="hsla(0, 0%, 0%, 0.5)" offset="75%"></stop></linearGradient></defs><path d="M-140.25 -87.7Q-126.98 -88.68 -113.71 -88.65 -100.44 -87.63 -87.17 -85.72 -73.9 -83.14 -60.64 -80.21 -47.37 -77.25 -34.1 -74.6 -20.83 -72.58 -7.56 -71.42 5.7 -71.25 18.97 -72.09 32.24 -73.85 45.51 -76.32 58.77 -79.21 72.04 -82.19 85.31 -84.92 98.58 -87.08 111.85 -88.42 125.12 -88.78 138.39 -88.13 151.66 -86.54 164.93 -84.19 178.2 -81.35 191.46 -78.36 204.73 -75.55 218 -73.26 231.27 -71.75 244.54 -71.2 257.81 -71.66 271.08 -73.08 284.35 -75.31 297.62 -78.08 310.88 -81.07 324.15 -83.93 337.42 -86.34 350.69 -88.02 363.96 -88.77 377.23 -88.5 390.5 -87.25 403.77 -85.16 417.04 -82.47 430.31 -79.49 443.57 -76.58 456.84 -74.06 470.11 -72.22 483.38 -71.29 496.65 -71.36 509.92 -72.43 523.19 -74.38 536.46 -76.98 549.73 -79.92 563 -82.88 576.26 -85.5 589.53 -87.48 602.8 -88.6 616.07 -88.72 629.34 -87.83 642.61 -86.04 655.88 -83.54 669.15 -80.64 682.42 -77.66 695.69 -74.95 708.95 -72.83 722.22 -71.53 735.49 -71.21 748.76 -71.91 762.03 -73.55 775.3 -75.93 788.57 -78.78 801.84 -81.77 815.11 -84.56 828.38 -86.82 841.64 -88.29 854.91 -88.79 868.18 -88.29 881.45 -86.82 894.72 -84.56 907.99 -81.78 921.26 -78.78 934.53 -75.93 947.8 -73.55 961.07 -71.91 974.33 -71.21 987.6 -71.53 1000.87 -72.82 1014.14 -74.95 1027.41 -77.66 1040.68 -80.64 1053.95 -83.54 1067.22 -86.04 1080.49 -87.83 1093.76 -88.72 1107.02 -88.6 1120.29 -87.48 1133.56 -85.5 1146.83 -82.88 1160.1 -79.93 1173.37 -76.98 1186.64 -74.38 1199.91 -72.44 1213.18 -71.36 1226.45 -71.29 1239.71 -72.22 1252.98 -74.05 1266.25 -76.57 1279.52 -79.49 1292.79 -82.46 1306.06 -85.15 1319.33 -87.24 1332.6 -88.5 1345.87 -88.77 1359.14 -88.02 1372.41 -86.35 1385.67 -83.94 1398.94 -81.07 1412.21 -78.08 1425.48 -75.31 1438.75 -73.09 1452.02 -71.66 1465.29 -71.2 1478.56 -71.75 1491.83 -73.26 1505.1 -75.55 1518.37 -78.35 1531.63 -81.35 1543.19 -77.94 1531.63 -56.87 1531.57 -42.04 1541.32 -27.2 1557.95 -12.37 1576.46 2.45 1591.28 17.28 1597.96 32.12 1594.47 46.95 1581.88 61.78 1563.97 76.62 1546.13 91.45 1533.72 106.28 1530.48 121.11 1537.38 135.95 1552.34 150.78 1570.87 165.61 1587.4 180.45 1596.94 195.28 1596.64 210.11 1586.57 224.94 1569.78 239.78 1551.31 254.61 1536.71 269.44 1530.38 284.27 1534.22 299.11 1547.08 313.94 1565.08 328.77 1582.82 343.61 1594.96 358.44 1597.84 373.27 1590.6 388.1 1575.42 402.94 1556.87 417.77 1540.51 432.6 1531.28 447.44 1531.95 462.27 1542.32 477.1 1559.27 491.93 1577.7 506.77 1592.06 521.6 1598.05 536.43 1593.85 551.27 1580.73 566.1 1562.64 580.93 1545.02 595.76 1533.16 610.6 1530.64 625.43 1538.21 640.26 1553.6 655.09 1572.17 669.93 1588.35 684.76 1597.26 699.59 1596.22 714.43 1585.55 729.26 1568.46 744.09 1550.08 758.92 1535.95 773.76 1530.31 788.59 1534.87 803.42 1548.24 818.26 1566.42 833.09 1583.92 847.92 1595.49 862.75 1581.84 868.95 1568.18 876.43 1554.53 884.32 1540.88 891.71 1527.22 897.75 1513.57 901.73 1499.91 903.19 1486.26 901.97 1472.6 898.21 1458.95 892.34 1445.29 885.04 1431.64 877.16 1417.99 869.6 1404.33 863.25 1390.68 858.84 1377.02 856.87 1363.37 857.58 1349.71 860.88 1336.06 866.4 1322.41 873.48 1308.75 881.33 1295.1 889.01 1281.44 895.66 1267.79 900.49 1254.13 902.95 1240.48 902.75 1226.83 899.92 1213.17 894.79 1199.52 887.94 1185.86 880.18 1172.21 872.39 1158.55 865.48 1144.9 860.25 1131.24 857.31 1117.59 856.99 1103.94 859.34 1090.28 864.07 1076.63 870.65 1062.97 878.3 1049.32 886.16 1035.66 893.3 1022.01 898.9 1008.36 902.31 994.7 903.15 981.05 901.3 967.39 896.99 953.74 890.71 940.08 883.19 926.43 875.3 912.78 867.96 899.12 862.01 885.47 858.14 871.81 856.8 858.16 858.14 844.5 862.01 830.85 867.97 817.2 875.31 803.54 883.2 789.89 890.72 776.23 896.99 762.58 901.3 748.92 903.15 735.27 902.31 721.62 898.89 707.96 893.29 694.31 886.15 680.65 878.29 667 870.64 653.34 864.06 639.69 859.33 626.04 856.99 612.38 857.31 598.73 860.26 585.07 865.49 571.42 872.4 557.76 880.19 544.11 887.95 530.46 894.8 516.8 899.93 503.15 902.75 489.49 902.95 475.84 900.48 462.18 895.65 448.53 889 434.88 881.32 421.22 873.47 407.57 866.39 393.91 860.88 380.26 857.58 366.6 856.87 352.95 858.84 339.3 863.26 325.64 869.61 311.99 877.17 298.33 885.05 284.68 892.35 271.03 898.22 257.37 901.98 243.72 903.19 230.06 901.72 216.41 897.74 202.75 891.71 189.1 884.31 175.45 876.42 161.79 868.95 148.14 862.75 134.48 858.54 120.83 856.82 107.17 857.78 93.52 861.31 79.87 867 66.21 874.2 52.56 882.07 38.9 889.69 25.25 896.2 11.59 900.82 -2.05 903.04 -15.7 902.6 -29.36 899.53 -43.01 894.21 -56.67 887.24 -70.32 879.43 -83.97 871.69 -97.63 864.91 -111.28 859.88 -124.94 857.17 -143.56 850.99 -142.9 830.08 -137.06 815.27 -132.76 800.47 -131.29 785.67 -133.11 770.87 -137.65 756.06 -143.56 741.26 -149.05 726.46 -152.48 711.65 -152.81 696.85 -149.95 682.05 -144.75 667.24 -138.78 652.44 -133.83 637.64 -131.4 622.83 -132.21 608.03 -136.02 593.23 -141.69 578.43 -147.5 563.62 -151.72 548.82 -153.07 534.02 -151.14 519.21 -146.53 504.41 -140.6 489.61 -135.15 474.8 -131.82 460 -131.61 445.2 -134.57 430.4 -139.83 415.59 -145.79 400.79 -150.67 385.99 -153 371.18 -152.07 356.38 -148.17 341.58 -142.47 326.77 -136.68 311.97 -132.55 297.17 -131.32 282.37 -133.35 267.56 -138.04 252.76 -143.98 237.96 -149.38 223.15 -152.61 208.35 -152.71 193.55 -149.64 178.74 -144.33 163.94 -138.37 149.14 -133.56 134.34 -131.35 119.53 -132.39 104.73 -136.38 89.93 -142.11 75.12 -147.87 60.32 -151.92 45.52 -153.04 30.71 -150.89 15.91 -146.13 1.11 -140.18 -13.68 -134.83 -28.49 -131.7 -43.29 -131.72 -58.09 -134.88 -72.9 -140.25 -87.7" fill="url(#uuunion-grad)"></path><path d="M-140.26 -87.7Q-134.89 -72.9 -131.73 -58.09 -131.71 -43.29 -134.84 -28.49 -140.19 -13.68 -146.14 1.11 -150.9 15.91 -153.05 30.72 -151.93 45.52 -147.88 60.32 -142.12 75.13 -136.39 89.93 -132.4 104.73 -131.36 119.53 -133.57 134.34 -138.38 149.14 -144.34 163.94 -149.65 178.75 -152.72 193.55 -152.62 208.35 -149.39 223.16 -143.99 237.96 -138.05 252.76 -133.36 267.56 -131.32 282.37 -132.56 297.17 -136.69 311.97 -142.48 326.78 -148.18 341.58 -152.08 356.38 -147.31 377.89 -132.55 384.01 -123.48 384.25 -114.41 385.3 -105.34 387.11 -96.27 389.59 -87.2 392.6 -78.13 396 -69.06 399.6 -59.99 403.23 -50.92 406.68 -41.85 409.8 -32.78 412.4 -23.71 414.36 -6.57 415.88 -3.55 415.97 7.31 411.93 18.28 406.69 29.37 400.42 40.55 393.39 51.83 385.9 63.18 378.32 74.61 371 86.1 364.28 97.63 358.43 109.2 353.68 120.78 350.15 132.37 347.86 143.95 346.73 155.51 346.61 167.05 347.24 178.54 348.32 189.98 349.51 201.37 350.46 212.69 350.84 223.95 350.39 235.13 348.89 246.25 346.21 257.31 342.33 268.3 337.32 279.23 331.33 290.11 324.6 300.94 317.42 311.74 310.13 322.51 303.05 333.27 296.51 344.03 290.76 354.79 286.02 365.58 282.42 376.4 279.97 387.27 278.63 398.19 278.23 409.18 278.56 420.24 279.33 431.38 280.23 442.61 280.93 453.93 281.13 465.34 280.57 476.84 279.05 488.44 276.43 500.12 272.7 511.88 267.9 523.72 262.18 535.62 255.76 547.57 248.89 559.55 241.88 571.56 235.06 583.58 228.7 595.59 223.07 607.58 218.36 619.52 214.7 631.4 212.11 643.2 210.56 654.9 209.9 666.5 209.93 677.97 210.39 689.31 211 700.49 211.45 711.52 211.45 722.38 210.77 733.08 209.21 743.61 206.65 753.96 203.05 764.16 198.45 774.19 193 784.08 186.86 793.83 180.3 803.47 173.59 813 167.02 822.45 160.86 831.83 155.36 841.18 150.69 850.52 146.99 859.87 144.28 869.27 142.52 878.72 141.61 888.28 141.34 897.95 141.5 907.77 141.82 917.75 142.01 927.93 141.81 938.32 141 948.93 139.38 959.79 136.86 970.9 133.37 982.27 128.97 993.9 123.76 1005.79 117.92 1017.95 111.66 1030.36 105.24 1043.01 98.94 1055.88 92.99 1068.96 87.62 1082.22 83.02 1095.64 79.28 1109.19 76.46 1122.83 74.52 1136.53 73.36 1150.27 72.81 1163.99 72.67 1177.66 72.69 1191.25 72.61 1204.72 72.2 1218.02 71.24 1231.14 69.57 1244.02 67.06 1256.65 63.68 1269 59.46 1281.03 54.49 1292.74 48.92 1304.09 42.97 1315.1 36.85 1325.74 30.81 1336.01 25.08 1345.93 19.86 1355.49 15.33 1364.71 11.58 1373.62 8.66 1390.45 5.44 1406.59 3.89 1414.35 3.61 1422 3.27 1403.78 -14.31 1392.96 -31.9 1393.91 -49.48 1406.25 -67.07 1424.98 -84.65 1442.5 -102.24 1451.7 -119.83 1448.85 -137.41 1436.25 -139.86 1423.65 -142.32 1411.05 -144.55 1398.45 -146.33 1385.85 -147.48 1373.25 -147.89 1360.65 -147.53 1348.05 -146.42 1335.45 -144.67 1322.85 -142.46 1310.25 -140.01 1297.65 -137.56 1285.05 -135.34 1272.45 -133.59 1259.85 -132.47 1247.25 -132.1 1234.65 -132.5 1222.05 -133.64 1209.45 -135.42 1196.84 -137.64 1184.24 -140.1 1171.64 -142.55 1159.04 -144.74 1146.44 -146.47 1133.84 -147.55 1121.24 -147.89 1108.64 -147.45 1096.04 -146.27 1083.44 -144.47 1070.84 -142.23 1058.24 -139.77 1045.64 -137.33 1033.04 -135.15 1020.44 -133.45 1007.84 -132.4 995.24 -132.1 982.64 -132.58 970.04 -133.79 957.44 -135.62 944.84 -137.88 932.24 -140.34 919.64 -142.78 907.04 -144.94 894.44 -146.61 881.84 -147.62 869.24 -147.88 856.64 -147.37 844.04 -146.12 831.44 -144.27 818.84 -141.99 806.24 -139.52 793.64 -137.1 781.04 -134.96 768.44 -133.32 755.84 -132.34 743.24 -132.11 730.64 -132.67 718.04 -133.95 705.44 -135.82 692.83 -138.11 680.23 -140.59 667.63 -143.01 655.03 -145.12 642.43 -146.74 629.83 -147.68 617.23 -147.87 604.63 -147.28 592.03 -145.96 579.43 -144.06 566.83 -141.76 554.23 -139.28 541.63 -136.87 529.03 -134.77 516.43 -133.19 503.83 -132.28 491.23 -132.13 478.63 -132.76 466.03 -134.11 453.43 -136.03 440.83 -138.35 428.23 -140.83 415.63 -143.23 403.03 -145.31 390.43 -146.86 377.83 -147.73 365.23 -147.84 352.63 -147.18 340.03 -145.8 327.43 -143.85 314.83 -141.52 302.23 -139.04 289.63 -136.65 277.03 -134.59 264.43 -133.07 251.83 -132.23 239.23 -132.16 226.63 -132.86 214.03 -134.27 201.43 -136.25 188.83 -138.59 176.22 -141.07 163.62 -143.45 151.02 -145.49 138.42 -146.98 125.82 -147.78 113.22 -147.81 100.62 -147.07 88.02 -145.63 75.42 -143.64 62.82 -141.28 50.22 -138.79 37.62 -136.43 25.02 -134.42 12.42 -132.96 -0.17 -132.19 -12.77 -132.2 -25.37 -132.97 -37.97 -134.44 -50.57 -136.46 -63.17 -138.83 -75.77 -141.32 -88.37 -143.67 -100.97 -145.66 -113.57 -147.09 -126.17 -147.82 -138.77 -147.77 -151.37 -146.96 -163.97 -145.46 -162.14 -131.04 -156.97 -116.61 -149.18 -102.17 -140.26 -87.7" fill="url(#uuunion-grad2)" filter="url(#uuunion-blur)"></path><path d="M1402.23 324.84Q1410.96 327.87 1419.7 330.5 1428.43 332.58 1437.17 334.02 1454.64 334.29 1472.11 332.33 1480.84 330.16 1489.58 327.47 1498.31 324.39 1507.05 321.09 1515.78 317.72 1524.51 314.48 1533.25 311.52 1541.98 309 1561.95 326.3 1582.82 343.61 1596.14 360.91 1596.5 378.22 1583.76 395.52 1563.08 412.83 1542.86 430.13 1531.28 447.44 1533.06 464.74 1547.46 482.05 1568.65 499.35 1588.04 516.66 1597.75 533.96 1593.85 551.27 1577.93 568.57 1556.43 585.87 1538.09 603.18 1530.33 620.48 1536.31 637.79 1553.6 655.09 1575.19 672.4 1592.32 689.7 1598.04 707.01 1590.04 724.31 1571.55 741.62 1550.08 758.92 1534.34 776.23 1530.7 793.53 1540.65 810.84 1560.15 828.14 1581.29 845.45 1595.49 862.75 1582.97 868.38 1570.44 875.14 1557.92 882.38 1545.39 889.38 1532.87 895.47 1520.35 900.04 1507.82 902.67 1495.3 903.08 1482.77 901.24 1470.25 897.33 1457.72 891.73 1445.2 884.99 1432.67 877.76 1420.15 870.74 1407.63 864.63 1395.1 860.02 1382.58 857.35 1370.05 856.9 1357.53 858.69 1345 862.56 1332.48 868.13 1319.95 874.86 1307.43 882.09 1294.9 889.12 1282.38 895.25 1269.86 899.9 1257.33 902.6 1244.81 903.11 1232.28 901.36 1219.76 897.52 1207.23 891.98 1194.71 885.27 1182.18 878.04 1169.66 871.01 1157.14 864.85 1144.61 860.17 1132.09 857.42 1119.56 856.87 1107.04 858.58 1094.51 862.38 1081.99 867.89 1069.46 874.58 1056.94 881.81 1044.41 888.85 1031.89 895.03 1019.37 899.75 1006.84 902.54 994.32 903.13 981.79 901.47 969.27 897.71 956.74 892.22 944.22 885.55 931.69 878.33 919.17 871.27 906.64 865.07 894.12 860.32 881.6 857.49 869.07 856.85 856.55 858.47 844.02 862.19 831.5 867.65 818.97 874.31 806.45 881.52 793.92 888.59 781.4 894.81 768.88 899.6 756.35 902.47 743.83 903.15 731.3 901.57 718.78 897.89 706.25 892.47 693.73 885.82 681.2 878.61 668.68 871.54 656.15 865.29 643.63 860.47 631.11 857.56 618.58 856.83 606.06 858.37 593.53 862.01 581.01 867.4 568.48 874.03 555.96 881.23 543.43 888.32 530.91 894.59 518.39 899.44 505.86 902.4 493.34 903.17 480.81 901.68 468.29 898.07 455.76 892.71 443.24 886.1 430.71 878.9 418.19 871.8 405.66 865.51 393.14 860.63 380.62 857.63 368.09 856.82 355.57 858.26 343.04 861.83 330.52 867.16 317.99 873.75 305.47 880.95 292.94 888.05 280.42 894.37 267.9 899.28 255.37 902.32 242.85 903.18 230.32 901.78 217.8 898.25 205.27 892.94 192.75 886.38 180.22 879.19 167.7 872.07 155.17 865.73 142.65 860.79 130.13 857.71 117.6 856.81 105.08 858.16 92.55 861.65 80.03 866.93 67.5 873.48 54.98 880.66 42.45 887.78 29.93 894.14 17.41 899.12 -0.65 897.64 -4.03 882.89 -1.47 872.74 1.15 862.59 3.49 852.44 5.22 842.29 6.3 827.07 6.99 822 18.66 814.54 30.06 804.98 41.29 793.67 52.43 781.15 63.58 768.06 74.82 755.1 86.22 742.94 97.83 732.19 109.69 723.28 121.82 716.47 134.19 711.8 146.8 709.09 159.61 707.96 172.55 707.88 185.58 708.2 198.63 708.28 211.65 707.45 224.59 705.18 237.4 701.09 250.07 694.96 262.59 686.8 274.96 676.83 287.21 665.45 299.38 653.17 311.5 640.64 323.63 628.47 335.83 617.28 348.14 607.55 360.62 599.63 373.28 593.65 386.15 589.59 399.23 587.2 412.5 586.06 425.91 585.65 439.43 585.37 452.97 584.62 466.47 582.83 479.85 579.57 493.04 574.55 505.95 567.66 518.54 558.98 530.76 548.79 542.6 537.49 554.07 525.61 565.2 513.73 576.04 502.41 586.67 492.17 597.2 483.4 607.74 476.34 618.4 471.05 629.31 467.42 640.58 465.16 652.3 463.85 664.56 462.98 677.39 462.01 690.82 460.4 704.82 457.67 719.35 453.5 734.31 447.68 749.58 440.19 765.03 431.18 780.49 420.94 795.79 409.88 810.77 398.52 821.09 393.39 831.39 388.6 841.68 384.37 851.96 380.88 862.22 378.27 872.46 376.61 882.68 375.93 892.88 376.2 903.05 377.32 913.19 379.13 923.31 381.46 933.39 384.07 943.44 386.73 953.46 389.19 963.44 391.24 973.38 392.66 983.28 393.29 993.14 393.02 1002.95 391.79 1012.73 389.6 1022.46 386.51 1032.14 382.64 1041.77 378.14 1051.36 373.24 1060.9 368.14 1070.38 363.08 1079.82 358.31 1089.21 354.04 1098.55 350.45 1107.84 347.68 1117.07 345.84 1126.26 344.94 1135.4 344.98 1144.49 345.86 1153.53 347.45 1162.52 349.58 1171.47 352.03 1180.36 354.59 1189.22 357 1198.03 359.05 1215.51 360.85 1232.88 360.14 1241.5 358.17 1250.09 355.32 1258.65 351.68 1267.18 347.4 1275.69 342.67 1284.17 337.71 1292.63 332.74 1301.08 328 1309.51 323.7 1317.93 320.02 1334.76 315.57 1351.57 313.81 1368.41 316.11 1385.28 320.06 1393.75 322.49 1402.23 324.84" fill="url(#uuunion-grad3)" filter="url(#uuunion-blur2)"></path></svg>